<?xml version="1.0" encoding="UTF-8"?>
<svg width="40px" height="40px" viewBox="0 0 40 40" version="1.1" xmlns="http://www.w3.org/2000/svg" xmlns:xlink="http://www.w3.org/1999/xlink">
    <!-- Generator: sketchtool 42 (36781) - http://www.bohemiancoding.com/sketch -->
    <title>E0BC41CC-C0AC-4C84-92BD-D41A4DF21177</title>
    <desc>Created with sketchtool.</desc>
    <defs></defs>
    <g id="Page-1" stroke="none" stroke-width="1" fill="none" fill-rule="evenodd">
        <g id="Top-Stories" transform="translate(-669.000000, -2340.000000)">
            <g id="Group-12" transform="translate(669.000000, 2338.000000)">
                <g id="Group-18" transform="translate(0.000000, 2.000000)">
                    <circle id="Oval-2" fill="#F7F9FA" cx="20" cy="20" r="20"></circle>
                    <g id="girl_1" transform="translate(6.000000, 0.000000)">
                        <g id="shadow" transform="translate(0.000000, 36.694215)">
                            <ellipse id="Oval-Copy" fill="#F7F9FA" cx="14" cy="1.65289256" rx="14" ry="1.65289256"></ellipse>
                            <ellipse id="Oval" fill="#E9EAEC" cx="13.8372093" cy="1.65289256" rx="5.69767442" ry="0.661157025"></ellipse>
                        </g>
                        <g id="girl" transform="translate(4.232558, 0.000000)">
                            <path d="M9.44511628,0.220264463 L9.44511628,0.220264463 C9.24162791,0.220264463 9.0404186,0.229520661 8.84051163,0.242743802 C8.01874419,0.297619835 7.22595349,0.463570248 6.47581395,0.72538843 C5.13637209,1.19315702 3.93302326,1.96505785 2.9504186,2.96241322 C1.94372093,3.9842314 1.16981395,5.24109091 0.712372093,6.64142149 C0.412511628,7.56076033 0.24744186,8.54092562 0.24744186,9.55910744 L0.24744186,15.6414215 C0.24744186,34.3151405 4.38623256,30.519438 9.44511628,30.519438 L9.44511628,28.098281 C14.5036744,28.098281 18.6427907,34.3151405 18.6427907,15.6414215 L18.6427907,9.55910744 C18.6427907,4.42257851 14.5036744,0.220264463 9.44511628,0.220264463" id="Fill-60" fill="#F2BA28"></path>
                            <path id="Fill-62" fill="#0DA9A1"></path>
                            <path d="M4.6263814,32.222281 C4.6263814,31.948562 4.40791628,31.7264132 4.1380093,31.7264132 C3.86810233,31.7264132 3.64963721,31.948562 3.64963721,32.222281 L3.64963721,34.2057521 L3.64963721,34.2057521 L4.72731163,34.2057521 C4.66349767,33.9393058 4.6263814,33.6652562 4.6263814,33.3865785 L4.6263814,32.222281 Z" id="Fill-64" fill="#0DA9A1"></path>
                            <path id="Fill-66" fill="#0DA9A1"></path>
                            <path d="M15.3686465,32.222281 C15.3686465,31.9505455 15.1514837,31.7300496 14.8838558,31.7300496 C14.6159023,31.7300496 14.3987395,31.9505455 14.3987395,32.222281 L14.3987395,33.3515372 C14.3987395,33.6424463 14.3590186,33.9283967 14.2906465,34.2057521 L15.3686465,34.2057521 L15.3686465,34.2057521 L15.3686465,32.222281 Z" id="Fill-68" fill="#0DA9A1"></path>
                            <path d="M13.4638326,24.7084628 C14.2878791,26.5944132 13.6129488,28.7150744 11.8906233,29.8099504 C11.3726233,30.1392066 10.8100186,30.3719339 10.2601116,30.4876364 L9.56466977,28.8185455 C9.47513488,28.6436694 9.23290233,28.6320992 9.12741395,28.797719 L8.52508837,30.5008595 C8.24866977,30.4469752 7.97387907,30.3630083 7.70625116,30.2516033 C5.55513488,29.3547438 4.5871814,26.8601983 5.52257674,24.698876 C2.80364651,25.8724298 0.948483721,28.2168926 0.948483721,30.9187107 L0.948483721,31.4631736 C0.948483721,32.8998678 2.03722791,34.0763967 3.42225116,34.1940826 C3.49713488,34.2003636 3.57266977,34.2056529 3.64950698,34.2056529 L3.64950698,34.2056529 L3.64950698,32.2221818 C3.64950698,31.9484628 3.86829767,31.726314 4.13787907,31.726314 C4.40778605,31.726314 4.62625116,31.9484628 4.62625116,32.2221818 L4.62625116,33.3864793 C4.62625116,33.665157 4.66336744,33.9392066 4.72750698,34.2056529 C4.88053023,34.8423471 5.20611163,35.4287934 5.68113488,35.8889587 C7.81499535,37.9570579 11.1704372,37.9653223 13.3143907,35.9078017 C13.7982047,35.4430083 14.1316,34.850281 14.2908093,34.2056529 C14.3591814,33.9282975 14.3985767,33.6423471 14.3985767,33.351438 L14.3985767,32.2221818 C14.3985767,31.9504463 14.6160651,31.7299504 14.883693,31.7299504 C15.1513209,31.7299504 15.3684837,31.9504463 15.3684837,32.2221818 L15.3684837,34.2056529 L15.3688093,34.2056529 C15.4560651,34.2056529 15.5420186,34.2006942 15.6273209,34.1924298 C16.9670884,34.0601983 18.0148093,32.9140826 18.0148093,31.5187107 L18.0148093,30.9187107 C18.0148093,28.2244959 16.1703907,25.8853223 13.4638326,24.7084628" id="Fill-70" fill="#4FC2C4"></path>
                            <path d="M7.7063814,30.2516033 C7.97368372,30.3630083 8.24847442,30.4469752 8.52489302,30.5008595 L9.12754419,28.797719 C9.23270698,28.6320992 9.47493953,28.6436694 9.5648,28.8185455 L10.2602419,30.4876364 C10.8101488,30.3719339 11.3727535,30.1392066 11.8907535,29.8099504 C13.6130791,28.7150744 14.2880093,26.5944132 13.4639628,24.7084628 C13.4639628,24.7084628 11.6931256,23.8975537 9.47689302,23.8975537 C7.26066047,23.8975537 5.52368372,24.6962314 5.52368372,24.6962314 C5.52335814,24.6972231 5.52303256,24.6978843 5.52270698,24.698876 C4.58698605,26.8601983 5.55493953,29.3547438 7.7063814,30.2516033" id="Fill-72" fill="#0DA9A1"></path>
                            <path d="M9.48174419,18.5916694 C8.39495349,18.5916694 7.5057907,19.4944793 7.5057907,20.5979504 L7.5057907,20.7576198 C7.5057907,19.6541488 8.39495349,18.7513388 9.48174419,18.7513388 C10.5685349,18.7513388 11.4576977,19.6541488 11.4576977,20.7576198 L11.4576977,20.5979504 C11.4576977,19.4944793 10.5685349,18.5916694 9.48174419,18.5916694" id="Fill-74" fill="#221F20"></path>
                            <path d="M7.50572558,23.7072397 L7.50572558,24.0850909 L7.50572558,24.2447603 L7.50572558,25.1393058 C7.50572558,25.8507107 8.32716744,26.8292231 8.9106093,27.4345124 C9.22512093,27.7607934 9.73856279,27.7607934 10.0530744,27.4345124 C10.6365163,26.8292231 11.4579581,25.8507107 11.4579581,25.1393058 L11.4579581,24.2447603 L11.4579581,24.0850909 L11.4579581,23.7072397 C10.8299116,23.8903802 10.1676791,24.2123636 9.48167907,24.2123636 C8.79600465,24.2123636 8.13344651,23.8903802 7.50572558,23.7072397" id="Fill-76" fill="#FFE1AD"></path>
                            <path d="M17.0765814,12.3699504 C17.0423953,11.9163967 16.821,11.5253223 16.4976977,11.2605289 L16.4976977,13.7246612 C16.884814,13.4082975 17.1172791,12.9107769 17.0765814,12.3699504" id="Fill-78" fill="#FCCA80"></path>
                            <path d="M1.61563256,12.6115372 C1.6498186,13.0650909 1.87121395,13.4561653 2.19451628,13.7209587 L2.19451628,11.2568264 C1.8074,11.5731901 1.57493488,12.0707107 1.61563256,12.6115372" id="Fill-80" fill="#FCCA80"></path>
                            <path d="M7.50572558,22.6916364 L7.50572558,23.7071736 C8.13344651,23.890314 8.79600465,24.2122975 9.48167907,24.2122975 C10.1676791,24.2122975 10.8299116,23.890314 11.4579581,23.7071736 L11.4579581,22.5835372 C10.7901907,22.8718017 10.0814,23.0337851 9.34623721,23.0337851 C8.70972558,23.0337851 8.09307442,22.9114711 7.50572558,22.6916364" id="Fill-82" fill="#D7B48A"></path>
                            <path d="M16.4977953,8.61213223 C16.4977953,4.6018843 13.2960279,8.72981818 9.34607442,8.72981818 C7.88616744,8.72981818 6.52849302,7.36849587 5.39709767,7.34833058 C5.37756279,7.348 5.35835349,7.34766942 5.33914419,7.34766942 C3.59402791,7.34006612 2.19435349,8.82105785 2.19435349,10.5929587 L2.19435349,11.2567603 L2.19435349,13.7208926 L2.19435349,14.2901488 L2.19630698,14.2901488 C2.1959814,14.3152727 2.19435349,14.3397355 2.19435349,14.3648595 C2.19435349,17.7288264 4.44802791,21.5476694 7.50556279,22.6918017 C8.09291163,22.9113058 8.70956279,23.0339504 9.34607442,23.0339504 C10.0812372,23.0339504 10.7903535,22.8719669 11.4577953,22.5833719 C14.3766326,21.3215537 16.4977953,17.6286612 16.4977953,14.3648595 C16.4977953,14.3397355 16.4961674,14.3152727 16.4958419,14.2901488 L16.4977953,14.2901488 L16.4977953,13.7248595 L16.4977953,11.2607273 L16.4977953,8.61213223 Z" id="Fill-84" fill="#FFE1AD"></path>
                            <path d="M7.2145907,10.6862479 C7.18626512,10.6862479 7.15728837,10.6832727 7.12831163,10.6769917 C6.03924186,10.4389752 4.88928837,10.3738512 4.33286977,10.5202975 C4.11473023,10.5778182 3.8930093,10.444595 3.8370093,10.2237686 C3.7810093,10.0029421 3.91156744,9.77715702 4.1293814,9.72029752 C4.96514884,9.50013223 6.35993953,9.66343802 7.29989302,9.86905785 C7.51966047,9.91732231 7.65933488,10.1368264 7.61212558,10.3599669 C7.57077674,10.5540165 7.40212558,10.6862479 7.2145907,10.6862479" id="Fill-86" fill="#BC7454"></path>
                            <path d="M11.4528791,10.6862479 C11.2653442,10.6862479 11.096693,10.5540165 11.0553442,10.3599669 C11.0081349,10.1368264 11.1478093,9.91732231 11.3675767,9.86905785 C12.3078558,9.66310744 13.7026465,9.50013223 14.538414,9.72029752 C14.7559023,9.77715702 14.886786,10.0026116 14.830786,10.2237686 C14.7744605,10.444595 14.5527395,10.5778182 14.3349256,10.5202975 C13.7778558,10.3738512 12.6282279,10.4389752 11.5391581,10.6769917 C11.5101814,10.6832727 11.4812047,10.6862479 11.4528791,10.6862479" id="Fill-88" fill="#BC7454"></path>
                            <path d="M9.48903721,20.0053884 C8.9869907,20.0053884 7.4749907,19.679438 7.4749907,19.1981157 C7.4749907,19.1105124 7.51113023,19.0255537 7.57201395,18.9637355 C7.6954093,18.8387769 7.91485116,18.8447273 8.03075814,18.9587769 C8.18345581,19.0443967 8.82745581,19.3442314 9.48903721,19.3442314 C10.1831767,19.3442314 10.892293,19.0348099 11.0531302,18.9511736 C11.1703395,18.8437355 11.3829442,18.8414215 11.5030837,18.963405 C11.564293,19.0255537 11.600107,19.1101818 11.600107,19.1981157 C11.600107,19.679438 10.0155023,20.0053884 9.48903721,20.0053884" id="Fill-90" fill="#F05B3D"></path>
                            <path d="M14.7317116,17.909124 C14.7317116,18.6205289 14.1638977,19.1970579 13.4632465,19.1970579 C12.7629209,19.1970579 12.1947814,18.6205289 12.1947814,17.909124 C12.1947814,17.197719 12.7629209,16.6211901 13.4632465,16.6211901 C14.1638977,16.6211901 14.7317116,17.197719 14.7317116,17.909124" id="Fill-92" fill="#FBC39C"></path>
                            <path d="M6.80126512,17.909124 C6.80126512,18.6205289 6.23345116,19.1970579 5.5328,19.1970579 C4.83247442,19.1970579 4.26433488,18.6205289 4.26433488,17.909124 C4.26433488,17.197719 4.83247442,16.6211901 5.5328,16.6211901 C6.23345116,16.6211901 6.80126512,17.197719 6.80126512,17.909124" id="Fill-94" fill="#FBC39C"></path>
                            <path d="M12.9448884,15.4576529 C11.9678186,15.4576529 11.1727488,14.6503802 11.1727488,13.658314 C11.1727488,12.6659174 11.9678186,11.8586446 12.9448884,11.8586446 C13.9219581,11.8586446 14.7170279,12.6659174 14.7170279,13.658314 C14.7170279,14.6503802 13.9219581,15.4576529 12.9448884,15.4576529 M6.05135349,15.4576529 C5.07395814,15.4576529 4.27888837,14.6503802 4.27888837,13.658314 C4.27888837,12.6659174 5.07395814,11.8586446 6.05135349,11.8586446 C7.02842326,11.8586446 7.82349302,12.6659174 7.82349302,13.658314 C7.82349302,14.6503802 7.02842326,15.4576529 6.05135349,15.4576529 M12.9448884,11.1974876 C11.9629349,11.1974876 11.1177256,11.7945124 10.7371209,12.6487273 L10.5131209,12.5829421 C9.91730698,12.4087273 9.28730698,12.4087273 8.6918186,12.5829421 L8.2841907,12.702281 C7.91628372,11.8189752 7.0538186,11.1974876 6.05135349,11.1974876 C4.71484186,11.1974876 3.62772558,12.3012893 3.62772558,13.658314 C3.62772558,15.0150083 4.71484186,16.1188099 6.05135349,16.1188099 C7.38753953,16.1188099 8.47465581,15.0150083 8.47465581,13.658314 C8.47465581,13.5505455 8.46553953,13.4450909 8.4521907,13.3412893 L8.8721907,13.218314 C9.3498186,13.0781488 9.85479535,13.0781488 10.3327488,13.218314 L10.5528419,13.2827769 C10.5339581,13.4054215 10.521586,13.5303802 10.521586,13.658314 C10.521586,15.0150083 11.6087023,16.1188099 12.9448884,16.1188099 C14.2810744,16.1188099 15.3681907,15.0150083 15.3681907,13.658314 C15.3681907,12.3012893 14.2810744,11.1974876 12.9448884,11.1974876" id="Fill-96" fill="#5B5255"></path>
                            <path d="M13.4633116,13.7010579 C13.4633116,13.9916364 13.2311721,14.2273388 12.944986,14.2273388 C12.6588,14.2273388 12.4266605,13.9916364 12.4266605,13.7010579 C12.4266605,13.4104793 12.6588,13.1747769 12.944986,13.1747769 C13.2311721,13.1747769 13.4633116,13.4104793 13.4633116,13.7010579" id="Fill-98" fill="#404041"></path>
                            <path d="M6.56961395,13.7010579 C6.56961395,13.9916364 6.33747442,14.2273388 6.05128837,14.2273388 C5.76510233,14.2273388 5.53296279,13.9916364 5.53296279,13.7010579 C5.53296279,13.4104793 5.76510233,13.1747769 6.05128837,13.1747769 C6.33747442,13.1747769 6.56961395,13.4104793 6.56961395,13.7010579" id="Fill-100" fill="#404041"></path>
                            <path id="Fill-102" fill="#FCCA80"></path>
                            <path d="M10.2014744,17.5865124 C10.2457535,17.5306446 10.2737535,17.4658512 10.2737535,17.3894876 C10.2737535,17.3002314 10.2382651,17.2146116 10.1764047,17.1514711 C10.1523116,17.1273388 10.1233349,17.1108099 10.093707,17.0959339 L10.0950093,17.094281 C10.0924047,17.0926281 10.0894744,17.0926281 10.0868698,17.0913058 C10.0758,17.0860165 10.0650558,17.0830413 10.0536605,17.0790744 C9.94556744,17.0364298 9.82770698,17.0546116 9.73817209,17.1230413 C9.66426512,17.1600661 9.47673023,17.2318017 9.30775349,17.2360992 C9.13877674,17.2318017 8.95156744,17.1600661 8.87733488,17.1230413 C8.78812558,17.0546116 8.67026512,17.0364298 8.56217209,17.0790744 C8.55077674,17.0830413 8.53970698,17.0860165 8.52896279,17.0913058 C8.52635814,17.0926281 8.52342791,17.0926281 8.52082326,17.094281 L8.52212558,17.0956033 C8.49249767,17.1104793 8.46319535,17.1273388 8.43942791,17.1514711 C8.37724186,17.2146116 8.34175349,17.3002314 8.34175349,17.3894876 C8.34175349,17.4658512 8.37007907,17.5306446 8.41403256,17.5865124 C8.41468372,17.5871736 8.4150093,17.5878347 8.41566047,17.5884959 C8.4413814,17.6208926 8.47231163,17.650314 8.50812558,17.6764298 C8.51593953,17.6820496 8.52440465,17.6873388 8.53254419,17.6926281 C8.55598605,17.7081653 8.58040465,17.7223802 8.60612558,17.7359339 C8.84217209,17.8618843 9.17263721,17.909157 9.29277674,17.909157 C9.29342791,17.909157 9.29896279,17.9088264 9.30775349,17.9084959 C9.31654419,17.9088264 9.32207907,17.909157 9.32273023,17.909157 C9.44286977,17.909157 9.77333488,17.8618843 10.0093814,17.7359339 C10.0354279,17.7223802 10.0598465,17.7081653 10.0829628,17.6926281 C10.0911023,17.6873388 10.0995674,17.6820496 10.1073814,17.6764298 C10.1431953,17.650314 10.1741256,17.6208926 10.1998465,17.5884959 C10.2004977,17.5878347 10.2008233,17.5871736 10.2014744,17.5865124" id="Fill-104" fill="#FCCA80"></path>
                            <path d="M10.5818512,34.664 C10.3842233,34.664 10.2240372,34.5013554 10.2240372,34.3006942 C10.2240372,34.1003636 10.3842233,33.937719 10.5818512,33.937719 C10.7794791,33.937719 10.9396651,34.1003636 10.9396651,34.3006942 C10.9396651,34.5013554 10.7794791,34.664 10.5818512,34.664 L10.5818512,34.664 Z M8.78854884,34.664 C8.59124651,34.664 8.43106047,34.5013554 8.43106047,34.3006942 C8.43106047,34.1003636 8.59124651,33.937719 8.78854884,33.937719 C8.98617674,33.937719 9.14636279,34.1003636 9.14636279,34.3006942 C9.14636279,34.5013554 8.98617674,34.664 8.78854884,34.664 L8.78854884,34.664 Z M11.8174326,32.4203636 C11.8737581,32.3489587 11.8623628,32.245157 11.7920372,32.1879669 C11.7217116,32.131438 11.6198047,32.1430083 11.5631535,32.2137521 L11.0360372,32.8811901 C10.9484558,32.8064793 10.857293,32.7357355 10.759293,32.6752397 C10.4219907,32.4666446 10.0260837,32.3466446 9.60217674,32.3466446 C9.05064186,32.3466446 8.54696744,32.5512727 8.15789767,32.8884628 L7.6412,32.2137521 C7.5852,32.1426777 7.48264186,32.1311074 7.41231628,32.1879669 C7.34231628,32.245157 7.33092093,32.3489587 7.38692093,32.4203636 L7.9247814,33.122843 C7.58259535,33.5208595 7.37389767,34.0398678 7.37389767,34.6094545 C7.37389767,36.1020165 11.8307814,36.0398678 11.8307814,34.6094545 C11.8307814,34.0349091 11.6168744,33.5132562 11.2694791,33.1142479 L11.8174326,32.4203636 Z" id="Fill-106" fill="#FEFEFE"></path>
                            <path d="M12.1949116,8.1225124 C12.1949116,8.1225124 14.1357023,10.2729256 18.6062605,8.72978512 L18.370214,6.96284298 L14.4365395,6.96284298 L12.1949116,8.1225124 Z" id="Fill-108" fill="#D49B29"></path>
                            <path d="M19.5868465,5.8134876 C19.5868465,7.61877686 18.1445209,8.72985124 15.9608465,8.72985124 C13.0859628,8.72985124 11.6677302,7.37877686 11.6677302,5.5734876 C11.6677302,4.01480992 13.9897767,1.89910744 16.4176372,4.1397686 C18.3942419,5.9642314 19.5868465,4.00819835 19.5868465,5.8134876" id="Fill-110" fill="#F2BA28"></path>
                        </g>
                    </g>
                </g>
            </g>
        </g>
    </g>
</svg>