<?xml version="1.0" encoding="UTF-8"?>
<svg width="40px" height="40px" viewBox="0 0 40 40" version="1.1" xmlns="http://www.w3.org/2000/svg" xmlns:xlink="http://www.w3.org/1999/xlink">
    <!-- Generator: sketchtool 42 (36781) - http://www.bohemiancoding.com/sketch -->
    <title>4F75F113-BC6F-4E7B-A131-3E4E79700855</title>
    <desc>Created with sketchtool.</desc>
    <defs>
        <polygon id="path-1" points="0.000162790698 4.26229508 9.76760465 4.26229508 9.76760465 0.023442623 0.000162790698 0.023442623 0.000162790698 4.26229508"></polygon>
        <polygon id="path-3" points="8.05390698 5.36566198 8.05390698 0.101393358 0.158358509 0.101393358 0.158358509 5.36566198 8.05390698 5.36566198"></polygon>
    </defs>
    <g id="Page-1" stroke="none" stroke-width="1" fill="none" fill-rule="evenodd">
        <g id="Top-Stories" transform="translate(-669.000000, -695.000000)">
            <g id="Group-3" transform="translate(669.000000, 695.000000)">
                <circle id="Oval-2" fill="#F7F9FA" cx="20" cy="20" r="20"></circle>
                <g id="boy_3" transform="translate(6.000000, 0.000000)">
                    <g id="shadow-copy" transform="translate(0.000000, 36.721311)">
                        <ellipse id="Oval-Copy" fill="#F7F9FA" cx="14" cy="1.63934426" rx="14" ry="1.63934426"></ellipse>
                        <ellipse id="Oval" fill="#E9EAEC" cx="13.8372093" cy="1.63934426" rx="5.69767442" ry="0.655737705"></ellipse>
                    </g>
                    <g id="Person-7" transform="translate(4.883721, 0.000000)">
                        <path d="M17.5813953,8.8524918 C17.5813953,13.7416721 13.6457674,17.7049508 8.79069767,17.7049508 C3.93562791,17.7049508 0,13.7416721 0,8.8524918 C0,3.96331148 3.93562791,3.27868852e-05 8.79069767,3.27868852e-05 C13.6457674,3.27868852e-05 17.5813953,3.96331148 17.5813953,8.8524918" id="Fill-1" fill="#A76A49"></path>
                        <path d="M16.9302326,13.0263279 C16.9302326,13.841082 16.274186,14.5017377 15.4651163,14.5017377 C14.6560465,14.5017377 14,13.841082 14,13.0263279 C14,12.2115738 14.6560465,11.550918 15.4651163,11.550918 C16.274186,11.550918 16.9302326,12.2115738 16.9302326,13.0263279" id="Fill-3" fill="#FECD85"></path>
                        <path d="M3.58139535,13.0263279 C3.58139535,13.841082 2.92534884,14.5017377 2.11627907,14.5017377 C1.3072093,14.5017377 0.651162791,13.841082 0.651162791,13.0263279 C0.651162791,12.2115738 1.3072093,11.550918 2.11627907,11.550918 C2.92534884,11.550918 3.58139535,12.2115738 3.58139535,13.0263279" id="Fill-5" fill="#FECD85"></path>
                        <path d="M11.0697674,23.1738033 L6.51162791,23.1738033 C3.09530233,23.1738033 0.325581395,25.9629836 0.325581395,29.4033115 L0.325581395,32.3541311 C0.325581395,33.0783934 0.908697674,33.6656066 1.62790698,33.6656066 L15.9534884,33.6656066 C16.6726977,33.6656066 17.255814,33.0783934 17.255814,32.3541311 L17.255814,29.4033115 C17.255814,25.9629836 14.486093,23.1738033 11.0697674,23.1738033" id="Fill-7" fill="#FFE2B0"></path>
                        <path d="M11.1514884,23.1779672 L11.3953488,26.1245246 L9.58511628,26.0464918 L8.79069767,28.0917377 L7.99627907,26.0464918 L6.8372093,26.1245246 L6.8372093,23.1737049 L6.51162791,23.1737049 C3.09530233,23.1737049 0.325581395,25.9628852 0.325581395,29.4032131 L0.325581395,32.3540328 C0.325581395,33.0782951 0.908697674,33.6655082 1.62790698,33.6655082 L15.9534884,33.6655082 C16.6726977,33.6655082 17.255814,33.0782951 17.255814,32.3540328 L17.255814,29.4032131 C17.255814,25.9907541 14.5297209,23.2225574 11.1514884,23.1779672" id="Fill-9" fill="#F1F2F2"></path>
                        <g id="Group-13" transform="translate(3.906977, 33.642295)">
                            <mask id="mask-2" fill="white">
                                <use xlink:href="#path-1"></use>
                            </mask>
                            <g id="Clip-12"></g>
                            <path d="M3.73262791,3.78213115 L0.000162790698,0.023442623 L9.76760465,0.023442623 L6.03481395,3.78213115 C5.39895349,4.42245902 4.36848837,4.42245902 3.73262791,3.78213115" id="Fill-11" fill="#F1F2F2" mask="url(#mask-2)"></path>
                        </g>
                        <path d="M8.79069767,26.124623 L8.79069767,26.124623 C7.71172093,26.124623 6.8372093,25.2439672 6.8372093,24.1574098 L6.8372093,19.5672459 L10.744186,19.5672459 L10.744186,24.1574098 C10.744186,25.2439672 9.86967442,26.124623 8.79069767,26.124623" id="Fill-14" fill="#FFE2B0"></path>
                        <path d="M10.744186,22.1901967 C10.744186,22.1901967 9.28590698,22.5180656 8.79069767,22.5180656 C8.29548837,22.5180656 6.8372093,22.1901967 6.8372093,22.1901967 L6.8372093,21.534459 C6.8372093,21.534459 8.29548837,21.8623279 8.79069767,21.8623279 C9.28590698,21.8623279 10.744186,21.534459 10.744186,21.534459 L10.744186,22.1901967 Z" id="Fill-16" fill="#292929" opacity="0.200000003"></path>
                        <path d="M3.41860465,31.2066885 C3.14869767,31.2066885 2.93023256,31.4270164 2.93023256,31.6984918 L2.93023256,33.6657049 L3.90697674,33.6657049 L3.90697674,31.6984918 C3.90697674,31.4270164 3.68851163,31.2066885 3.41860465,31.2066885" id="Fill-18" fill="#292929" opacity="0.200000003"></path>
                        <path d="M14.1627907,31.2066885 C13.8928837,31.2066885 13.6744186,31.4270164 13.6744186,31.6984918 L13.6744186,33.6657049 L14.6511628,33.6657049 L14.6511628,31.6984918 C14.6511628,31.4270164 14.4326977,31.2066885 14.1627907,31.2066885" id="Fill-20" fill="#292929" opacity="0.200000003"></path>
                        <path d="M8.79027442,17.7445246 C7.70348372,17.7445246 6.81432093,18.6399344 6.81432093,19.7343607 L6.81432093,19.8927213 C6.81432093,18.7982951 7.70348372,17.9028852 8.79027442,17.9028852 C9.87706512,17.9028852 10.7662279,18.7982951 10.7662279,19.8927213 L10.7662279,19.7343607 C10.7662279,18.6399344 9.87706512,17.7445246 8.79027442,17.7445246" id="Fill-22" fill="#373435"></path>
                        <path d="M8.79069767,21.8623279 L8.79069767,21.8623279 C4.83488372,21.8623279 1.62790698,18.6328197 1.62790698,14.6492131 L1.62790698,8.41970492 C1.62790698,4.43609836 4.83488372,1.20659016 8.79069767,1.20659016 L8.79069767,1.20659016 C12.7465116,1.20659016 15.9534884,4.43609836 15.9534884,8.41970492 L15.9534884,14.6492131 C15.9534884,18.6328197 12.7465116,21.8623279 8.79069767,21.8623279" id="Fill-24" fill="#FFE2B0"></path>
                        <path id="Fill-26" fill="#FECD85"></path>
                        <path d="M8.78890698,15.3987213 C8.49588372,15.3987213 8.2057907,15.3577377 7.92644186,15.2767541 C7.75355814,15.226918 7.65360465,15.0452787 7.7034186,14.8711803 C7.75290698,14.697082 7.93327907,14.5974098 8.10616279,14.6465902 C8.54862791,14.7747869 9.03048837,14.7747869 9.47393023,14.6459344 C9.64713953,14.5964262 9.82751163,14.6960984 9.877,14.8705246 C9.92681395,15.0442951 9.82718605,15.2262623 9.65430233,15.2760984 C9.37365116,15.3574098 9.0825814,15.3987213 8.78890698,15.3987213" id="Fill-28" fill="#FECD85"></path>
                        <path d="M10.5263395,17.0887869 C11.012107,17.0887869 11.3383395,17.5874754 11.1579674,18.0415738 C10.7822465,18.9874754 9.8637814,19.6556721 8.79033953,19.6556721 C7.71689767,19.6556721 6.79843256,18.9874754 6.42271163,18.0415738 C6.24233953,17.5874754 6.56857209,17.0887869 7.05433953,17.0887869 L10.5263395,17.0887869 Z" id="Fill-30" fill="#524758"></path>
                        <path d="M14.0172233,16.1691148 C14.0172233,16.408459 13.6317349,16.6025574 13.156386,16.6025574 C12.6810372,16.6025574 12.2958744,16.408459 12.2958744,16.1691148 C12.2958744,15.9297705 12.6810372,15.7356721 13.156386,15.7356721 C13.6317349,15.7356721 14.0172233,15.9297705 14.0172233,16.1691148" id="Fill-32" fill="#FBC6A0"></path>
                        <path d="M5.01343256,16.1691148 C5.01343256,16.408459 4.62794419,16.6025574 4.15259535,16.6025574 C3.67724651,16.6025574 3.29208372,16.408459 3.29208372,16.1691148 C3.29208372,15.9297705 3.67724651,15.7356721 4.15259535,15.7356721 C4.62794419,15.7356721 5.01343256,15.9297705 5.01343256,16.1691148" id="Fill-34" fill="#FBC6A0"></path>
                        <path d="M9.93840465,17.9672131 L7.65673023,17.9672131 C7.26766047,17.9672131 6.95217209,17.6495082 6.95217209,17.2580328 L6.95217209,17.0888525 L10.6426372,17.0888525 L10.6426372,17.2580328 C10.6426372,17.6495082 10.3274744,17.9672131 9.93840465,17.9672131" id="Fill-36" fill="#FEFEFE"></path>
                        <path d="M8.79069767,18.7049508 C8.29451163,18.7049508 7.85693023,18.964623 7.60167442,19.3547869 C7.9572093,19.5442951 8.36027907,19.6557705 8.79069767,19.6557705 C9.22111628,19.6557705 9.62418605,19.5442951 9.97972093,19.3547869 C9.72446512,18.964623 9.28688372,18.7049508 8.79069767,18.7049508" id="Fill-38" fill="#F37F65"></path>
                        <path d="M12.2401023,14.5725574 C11.2646605,14.5725574 10.470893,13.7732131 10.470893,12.790918 C10.470893,11.8082951 11.2646605,11.0089508 12.2401023,11.0089508 C13.2155442,11.0089508 14.0093116,11.8082951 14.0093116,12.790918 C14.0093116,13.7732131 13.2155442,14.5725574 12.2401023,14.5725574 M5.35796279,14.5725574 C4.38219535,14.5725574 3.58875349,13.7732131 3.58875349,12.790918 C3.58875349,11.8082951 4.38219535,11.0089508 5.35796279,11.0089508 C6.33340465,11.0089508 7.12717209,11.8082951 7.12717209,12.790918 C7.12717209,13.7732131 6.33340465,14.5725574 5.35796279,14.5725574 M12.2401023,10.3545246 C11.2597767,10.3545246 10.4158698,10.9453443 10.0362419,11.7912459 L9.81224186,11.7263279 C9.21773023,11.553541 8.58870698,11.553541 7.99386977,11.7263279 L7.5872186,11.8443607 C7.21963721,10.9696066 6.3588,10.3545246 5.35796279,10.3545246 C4.02373023,10.3545246 2.93856744,11.4473115 2.93856744,12.790918 C2.93856744,14.1341967 4.02373023,15.2273115 5.35796279,15.2273115 C6.69219535,15.2273115 7.77735814,14.1341967 7.77735814,12.790918 C7.77735814,12.6843607 7.76824186,12.5800984 7.75489302,12.4768197 L8.17424186,12.3551803 C8.65089302,12.2164918 9.1552186,12.2164918 9.63219535,12.3551803 L9.85196279,12.4191148 C9.83340465,12.5407541 9.82070698,12.6640328 9.82070698,12.790918 C9.82070698,14.1341967 10.9058698,15.2273115 12.2401023,15.2273115 C13.5743349,15.2273115 14.6594977,14.1341967 14.6594977,12.790918 C14.6594977,11.4473115 13.5743349,10.3545246 12.2401023,10.3545246" id="Fill-40" fill="#2D2D2D"></path>
                        <path d="M12.7060093,12.8459344 C12.7060093,13.1174098 12.4872186,13.3377377 12.2176372,13.3377377 C11.9480558,13.3377377 11.7292651,13.1174098 11.7292651,12.8459344 C11.7292651,12.574459 11.9480558,12.3541311 12.2176372,12.3541311 C12.4872186,12.3541311 12.7060093,12.574459 12.7060093,12.8459344" id="Fill-42" fill="#2D2D2D"></path>
                        <path d="M5.8688,12.8459344 C5.8688,13.1174098 5.6500093,13.3377377 5.38042791,13.3377377 C5.11084651,13.3377377 4.89205581,13.1174098 4.89205581,12.8459344 C4.89205581,12.574459 5.11084651,12.3541311 5.38042791,12.3541311 C5.6500093,12.3541311 5.8688,12.574459 5.8688,12.8459344" id="Fill-44" fill="#2D2D2D"></path>
                        <g id="Group-48" transform="translate(9.767442, 1.511148)">
                            <mask id="mask-4" fill="white">
                                <use xlink:href="#path-3"></use>
                            </mask>
                            <g id="Clip-47"></g>
                            <path d="M7.98328837,1.57586885 C8.36324186,3.32504918 7.1882186,4.71193443 5.0550093,5.18209836 C2.24654419,5.80078689 0.576637209,4.79718033 0.19635814,3.048 C-0.131502326,1.5375082 1.69142791,-1.012 4.53505581,0.636196721 C6.84993953,1.9784918 7.60333488,-0.173311475 7.98328837,1.57586885" id="Fill-46" fill="#A76A49" mask="url(#mask-4)"></path>
                        </g>
                        <path d="M11.1181814,9.07544262 C12.8737163,9.07544262 14.5283209,8.50921311 15.8921814,7.48888525 C15.8606,7.24167213 15.8166465,6.99839344 15.7606465,6.75937705 C14.4612512,7.82462295 12.8431116,8.41970492 11.1181814,8.41970492 C7.85097209,8.41970492 5.02785581,6.25577049 4.07878605,3.21314754 C3.90329767,3.38954098 3.73790233,3.57609836 3.58129767,3.76986885 C4.71953023,6.88954098 7.6933907,9.07544262 11.1181814,9.07544262" id="Fill-49" fill="#292929" opacity="0.200000003"></path>
                        <path d="M8.70835814,0.0253114754 C6.58263721,0.0253114754 4.63403256,0.787606557 3.11617209,2.05514754 C3.5902186,5.88662295 6.83333488,8.85252459 10.7663581,8.85252459 C13.2808233,8.85252459 15.5136605,7.64006557 16.9214744,5.76465574 C15.6780791,2.41252459 12.4704512,0.0253114754 8.70835814,0.0253114754" id="Fill-51" fill="#A76A49"></path>
                        <path d="M2.74621395,2.75403279 C1.33514419,4.23993443 0.432632558,6.21993443 0.325516279,8.4117377 C0.623423256,8.50845902 0.940539535,8.56222951 1.27035349,8.56222951 C2.96728372,8.56222951 4.34286512,7.17665574 4.34286512,5.46780328 C4.34286512,4.29763934 3.69756279,3.27993443 2.74621395,2.75403279" id="Fill-53" fill="#A76A49"></path>
                        <path d="M3.02735349,10.4974426 C3.12144651,10.4974426 3.21456279,10.4567869 3.27902791,10.3780984 C3.6309814,9.94695082 4.24958605,9.50301639 5.92535349,9.89416393 C6.1001907,9.93613115 6.27600465,9.82563934 6.31637674,9.6492459 C6.35707442,9.47285246 6.24800465,9.29645902 6.07284186,9.25580328 C4.51428372,8.89088525 3.46753953,9.11580328 2.77633023,9.96104918 C2.66205116,10.1010492 2.68191163,10.3076066 2.8206093,10.4226885 C2.88149302,10.4731803 2.95442326,10.4974426 3.02735349,10.4974426" id="Fill-55" fill="#A76A49"></path>
                        <path d="M11.3837581,9.89422951 C13.0588744,9.5027541 13.6781302,9.94701639 14.0300837,10.3781639 C14.0945488,10.4568525 14.1876651,10.4975082 14.2817581,10.4975082 C14.3546884,10.4975082 14.4279442,10.4732459 14.4885023,10.4227541 C14.6272,10.3076721 14.6470605,10.1011148 14.533107,9.96111475 C13.8418977,9.11521311 12.7948279,8.88996721 11.2362698,9.25586885 C11.0614326,9.29652459 10.9523628,9.47291803 10.9930605,9.64931148 C11.0334326,9.82570492 11.2098977,9.93652459 11.3837581,9.89422951" id="Fill-57" fill="#A76A49"></path>
                        <path d="M6.8372093,24.1879672 L6.8372093,22.846 C6.52465116,23.028623 6.07860465,23.2273115 5.86046512,23.5017377 C5.48832558,23.9696066 5.20930233,24.4017377 5.20930233,25.141082 C5.20930233,25.7528852 5.59544186,26.4761639 5.94739535,27.0082951 C6.21274419,27.4096066 6.78186047,27.4512459 7.09637209,27.0876393 L7.99627907,26.0463279 C7.99627907,26.0463279 6.8372093,25.4689508 6.8372093,24.1879672" id="Fill-59" fill="#AAACAE"></path>
                        <path d="M10.744186,24.1879672 L10.744186,22.846 C11.0567442,23.028623 11.5027907,23.2273115 11.7209302,23.5017377 C12.0930698,23.9696066 12.372093,24.4017377 12.372093,25.141082 C12.372093,25.7528852 11.9859535,26.4761639 11.634,27.0082951 C11.3686512,27.4096066 10.7995349,27.4512459 10.4850233,27.0876393 L9.58511628,26.0463279 C9.58511628,26.0463279 10.744186,25.4689508 10.744186,24.1879672" id="Fill-61" fill="#AAACAE"></path>
                        <path d="M9.11627907,28.1394426 C9.11627907,28.3204262 8.9704186,28.4673115 8.79069767,28.4673115 C8.61097674,28.4673115 8.46511628,28.3204262 8.46511628,28.1394426 C8.46511628,27.958459 8.61097674,27.8115738 8.79069767,27.8115738 C8.9704186,27.8115738 9.11627907,27.958459 9.11627907,28.1394426" id="Fill-63" fill="#AAACAE"></path>
                        <path d="M9.11627907,29.7311803 C9.11627907,29.9121639 8.9704186,30.0590492 8.79069767,30.0590492 C8.61097674,30.0590492 8.46511628,29.9121639 8.46511628,29.7311803 C8.46511628,29.5501967 8.61097674,29.4033115 8.79069767,29.4033115 C8.9704186,29.4033115 9.11627907,29.5501967 9.11627907,29.7311803" id="Fill-65" fill="#AAACAE"></path>
                    </g>
                </g>
            </g>
        </g>
    </g>
</svg>