<?xml version="1.0" encoding="UTF-8"?>
<svg width="40px" height="40px" viewBox="0 0 40 40" version="1.1" xmlns="http://www.w3.org/2000/svg" xmlns:xlink="http://www.w3.org/1999/xlink">
    <!-- Generator: sketchtool 42 (36781) - http://www.bohemiancoding.com/sketch -->
    <title>E83A7EC2-81BE-4D07-88FE-E238778B19E2</title>
    <desc>Created with sketchtool.</desc>
    <defs>
        <polygon id="path-1" points="13.8126279 0.234516129 0.198116279 0.234516129 0.198116279 9.56929032 13.8126279 9.56929032 13.8126279 0.234516129"></polygon>
    </defs>
    <g id="Page-1" stroke="none" stroke-width="1" fill="none" fill-rule="evenodd">
        <g id="Top-Stories" transform="translate(-669.000000, -1913.000000)">
            <g id="Group-17" transform="translate(669.000000, 1913.000000)">
                <circle id="Oval-2" fill="#F7F9FA" cx="20" cy="20" r="20"></circle>
                <g id="boy_1" transform="translate(6.000000, 0.000000)">
                    <g id="shadow" transform="translate(0.000000, 36.774194)">
                        <ellipse id="Oval-Copy" fill="#F7F9FA" cx="14" cy="1.61290323" rx="14" ry="1.61290323"></ellipse>
                        <ellipse id="Oval" fill="#E9EAEC" cx="13.8372093" cy="1.61290323" rx="5.69767442" ry="0.64516129"></ellipse>
                    </g>
                    <g id="boy" transform="translate(4.883721, 0.000000)">
                        <path d="M3.50374419,31.6637097 C3.23383721,31.6637097 3.01537209,31.8804839 3.01537209,32.1475806 L3.01537209,34.0830645 L3.99211628,34.0830645 L3.99211628,32.1475806 C3.99211628,31.8804839 3.77365116,31.6637097 3.50374419,31.6637097 L3.50374419,31.6637097 Z" id="Fill-1" fill="#BBBDBF"></path>
                        <path d="M14.2495256,31.6671613 C13.9818977,31.6671613 13.7644093,31.8823226 13.7644093,32.1474839 L13.7644093,34.0829677 L14.7343163,34.0829677 L14.7343163,32.1474839 C14.7343163,31.8823226 14.5171535,31.6671613 14.2495256,31.6671613" id="Fill-3" fill="#BBBDBF"></path>
                        <path id="Fill-5" fill="#D1D2D4"></path>
                        <path d="M11.6093209,24.397871 L11.6093209,25.4394839 C11.6093209,26.9391613 10.3691814,28.0198065 8.85490233,28.0165806 C7.34029767,28.0198065 6.10015814,26.9391613 6.10015814,25.4394839 L6.10015814,24.3936774 C2.73690233,25.3127097 0.314251163,27.8643226 0.314251163,30.8752903 L0.314251163,33.4704516 C0.314251163,33.8088387 0.590995349,34.0830323 0.932530233,34.0830323 L3.01527442,34.0830323 L3.01527442,32.1475484 C3.01527442,31.8804516 3.23406512,31.6636774 3.50364651,31.6636774 C3.77355349,31.6636774 3.9920186,31.8804516 3.9920186,32.1475484 L3.9920186,34.0830323 L7.82248372,37.7056129 C8.40071628,38.2527097 9.3103907,38.2549677 9.89155349,37.7104516 L13.7643442,34.0830323 L13.7643442,32.1475484 C13.7643442,31.8823871 13.9818326,31.6672258 14.2494605,31.6672258 C14.5170884,31.6672258 14.7342512,31.8823871 14.7342512,32.1475484 L14.7342512,34.0830323 L17.0221116,34.0830323 C17.2200651,34.0830323 17.3805767,33.924 17.3805767,33.7275484 L17.3805767,30.8752903 C17.3805767,27.8688387 14.9650884,25.320129 11.6093209,24.397871" id="Fill-7" fill="#D1D2D4"></path>
                        <path id="Fill-9" fill="#D1D2D4"></path>
                        <path d="M8.85473953,28.0164839 C10.3690186,28.0200323 11.6091581,26.9390645 11.6091581,25.4393871 L11.6091581,24.3977742 L11.6091581,24.3813226 C11.5378558,24.3639032 11.4629721,24.3529355 11.390693,24.3368065 C11.3718093,24.3322903 11.3522744,24.3290645 11.3333907,24.324871 C11.1429256,24.2832581 10.9537628,24.2393871 10.7587395,24.207129 C10.1443674,24.3258387 9.51143721,24.3932581 8.86190233,24.3932581 L8.84757674,24.3932581 C8.19804186,24.3932581 7.56511163,24.3258387 6.95073953,24.207129 C6.75083256,24.2400323 6.55678605,24.284871 6.36176279,24.3277742 C6.32953023,24.334871 6.29697209,24.3403548 6.26506512,24.3477742 C6.21069302,24.3600323 6.15404186,24.3680968 6.09999535,24.3813226 L6.09999535,24.3939032 L6.09999535,25.4393871 C6.09999535,26.9390645 7.34046047,28.0200323 8.85473953,28.0164839" id="Fill-11" fill="#BBBDBF"></path>
                        <path d="M11.2235395,31.4214194 L6.48567907,31.4214194 C5.91753953,31.4214194 5.62223721,32.0923871 6.00902791,32.5049677 L8.08395814,34.7191613 C8.50005116,35.1630323 9.20949302,35.1630323 9.62558605,34.7191613 L11.7005163,32.5049677 C12.0869814,32.0923871 11.7916791,31.4214194 11.2235395,31.4214194" id="Fill-13" fill="#ED1C24"></path>
                        <path d="M7.5236,33.2599032 L6.54034419,32.2857097 C6.38894884,32.1357097 6.49606512,31.8792581 6.71029767,31.8792581 L7.44676279,31.8792581 C7.71569302,31.8792581 7.93383256,32.0953871 7.93383256,32.3618387 L7.93383256,33.0915161 C7.93383256,33.3037742 7.67499535,33.4099032 7.5236,33.2599032" id="Fill-15" fill="#EF5A48"></path>
                        <path d="M8.84747907,18.8467419 C7.76068837,18.8467419 6.87152558,19.7277097 6.87152558,20.8044839 L6.87152558,20.9602903 C6.87152558,19.8835161 7.76068837,19.0025484 8.84747907,19.0025484 C9.93426977,19.0025484 10.8234326,19.8835161 10.8234326,20.9602903 L10.8234326,20.8044839 C10.8234326,19.7277097 9.93426977,18.8467419 8.84747907,18.8467419" id="Fill-17" fill="#221F20"></path>
                        <path d="M6.87146047,23.8385161 L6.87146047,24.2072258 L6.87146047,24.3630323 L6.87146047,25.2359355 C6.87146047,26.3127097 7.76062326,27.1936774 8.84741395,27.1936774 C9.93420465,27.1936774 10.823693,26.3127097 10.823693,25.2359355 L10.823693,24.3630323 L10.823693,24.2072258 L10.823693,23.8385161 C10.1956465,24.0172258 9.53341395,24.1146452 8.84741395,24.1146452 C8.16173953,24.1146452 7.4991814,24.0172258 6.87146047,23.8385161" id="Fill-19" fill="#FFE1AD"></path>
                        <path d="M6.87146047,22.8600968 L6.87146047,23.8384839 C7.4991814,24.0171935 8.16173953,24.1146129 8.84741395,24.1146129 C9.53341395,24.1146129 10.1956465,24.0171935 10.823693,23.8384839 L10.823693,22.7836452 C10.1559256,22.9878387 9.4468093,23.0981613 8.71197209,23.0981613 C8.07546047,23.0981613 7.4588093,23.0146129 6.87146047,22.8600968" id="Fill-21" fill="#D7B48A"></path>
                        <path d="M15.8634977,11.3550323 L15.8634977,14.4318065 C15.9035442,14.4318065 15.9419628,14.4376129 15.9823349,14.4347097 C16.8415442,14.3695484 17.484893,13.6266452 17.4191256,12.7756774 C17.3562884,11.9643871 16.6712651,11.3550323 15.8634977,11.3550323" id="Fill-23" fill="#FCCA80"></path>
                        <path d="M1.44118605,11.3521613 C0.581976744,11.4173226 -0.0610465116,12.1599032 0.00472093023,13.0111935 C0.0672325581,13.8224839 0.752581395,14.4318387 1.56002326,14.4318387 L1.56002326,11.3550645 C1.52030233,11.3550645 1.48155814,11.3489355 1.44118605,11.3521613" id="Fill-25" fill="#FCCA80"></path>
                        <path d="M15.8634977,11.2666774 C17.272614,9.73248387 17.590707,7.41474194 16.4879628,5.52248387 C16.1578233,4.95603226 15.4265674,4.76183871 14.8548465,5.08893548 L13.968614,5.59603226 C15.1442884,6.8586129 15.8634977,8.5453871 15.8634977,10.3989355 L15.8634977,11.2666774 Z" id="Fill-27" fill="#CD7C4F"></path>
                        <path d="M3.99774884,5.07274194 L3.77733023,4.9466129 C3.2056093,4.61951613 2.47435349,4.81370968 2.14421395,5.38016129 L2.14421395,5.38016129 C1.44942326,6.57241935 1.3208186,7.93306452 1.67114419,9.16080645 C1.95928372,7.54177419 2.80156279,6.11306452 3.99774884,5.07274194" id="Fill-29" fill="#CD7C4F"></path>
                        <path d="M15.8634977,11.2666774 L15.8634977,10.3989355 C15.8634977,8.5453871 15.1442884,6.8586129 13.968614,5.59603226 C12.6617302,4.19280645 10.790614,3.31312903 8.71177674,3.31312903 C6.90545116,3.31312903 5.25670698,3.97829032 3.99768372,5.07280645 C2.80149767,6.11312903 1.9592186,7.54183871 1.67107907,9.16087097 C1.59945116,9.56312903 1.56005581,9.97635484 1.56005581,10.3989355 L1.56005581,11.3550645 L1.56005581,14.4318387 L1.56005581,15.9395806 L1.5620093,15.9395806 C1.56168372,15.9640968 1.56005581,15.9879677 1.56005581,16.0121613 C1.56005581,19.2950645 3.81373023,22.0553871 6.8715907,22.8602258 C7.45893953,23.0147419 8.07526512,23.0979677 8.71177674,23.0979677 C9.44693953,23.0979677 10.1560558,22.9879677 10.8234977,22.7837742 C13.7423349,21.8911935 15.8634977,19.1973226 15.8634977,16.0121613 C15.8634977,15.9879677 15.8618698,15.9640968 15.8615442,15.9395806 L15.8634977,15.9395806 L15.8634977,14.4318387 L15.8634977,11.3550645 L15.8634977,11.2666774 Z" id="Fill-31" fill="#FFE1AD"></path>
                        <path d="M4.18385116,13.0001613 C4.00706047,13.0001613 3.84459535,12.8853226 3.79282791,12.708871 C3.73064186,12.4946774 3.85533953,12.271129 4.0712,12.2095161 C4.81222326,11.9985484 5.62194419,11.9979032 6.36231628,12.2085484 C6.57817674,12.2698387 6.7032,12.4933871 6.64101395,12.7075806 C6.57882791,12.9214516 6.35254884,13.045 6.13733953,12.9833871 C5.54282791,12.8143548 4.89101395,12.8146774 4.29682791,12.9843548 C4.25906047,12.995 4.22129302,13.0001613 4.18385116,13.0001613" id="Fill-33" fill="#BC7454"></path>
                        <path id="Fill-35" fill="#FCCA80"></path>
                        <path d="M8.84611163,16.5387742 C8.55308837,16.5387742 8.26299535,16.4984516 7.98364651,16.4187742 C7.81076279,16.3697419 7.7108093,16.1910323 7.76062326,16.0197419 C7.81011163,15.8484516 7.99048372,15.7503871 8.16336744,15.7987742 C8.60583256,15.9249032 9.08769302,15.9249032 9.53113488,15.798129 C9.70434419,15.7494194 9.88471628,15.8474839 9.93420465,16.0190968 C9.9840186,16.1900645 9.8843907,16.3690968 9.71150698,16.418129 C9.43085581,16.498129 9.13978605,16.5387742 8.84611163,16.5387742" id="Fill-37" fill="#FCCA80"></path>
                        <path d="M11.2832186,13.0001613 C11.1064279,13.0001613 10.9439628,12.8853226 10.8921953,12.708871 C10.8300093,12.4946774 10.954707,12.271129 11.1705674,12.2095161 C11.9109395,11.9982258 12.7206605,11.9972581 13.4616837,12.2085484 C13.6778698,12.2698387 13.8025674,12.4933871 13.7403814,12.7075806 C13.6785209,12.9214516 13.4522419,13.045 13.2370326,12.9833871 C12.6418698,12.8143548 11.9900558,12.8146774 11.3961953,12.9843548 C11.3584279,12.995 11.3206605,13.0001613 11.2832186,13.0001613" id="Fill-39" fill="#BC7454"></path>
                        <path d="M11.8295442,14.2028387 C11.6934512,14.2028387 11.6019628,14.0654194 11.6524279,13.9399355 C11.7579163,13.6789677 12.0154512,13.4944516 12.3162884,13.4944516 C12.6174512,13.4944516 12.874986,13.6789677 12.9804744,13.9399355 C13.0309395,14.0654194 12.9394512,14.2028387 12.8033581,14.2028387 L11.8295442,14.2028387 Z" id="Fill-41" fill="#473A4F"></path>
                        <path d="M4.77582326,14.2028387 C4.61791628,14.2028387 4.50331163,14.0396129 4.57135814,13.8986452 C4.68628837,13.6596129 4.93210233,13.4944516 5.21698605,13.4944516 C5.50186977,13.4944516 5.74768372,13.6596129 5.86261395,13.8986452 C5.93066047,14.0396129 5.81605581,14.2028387 5.65814884,14.2028387 L4.77582326,14.2028387 Z" id="Fill-43" fill="#473A4F"></path>
                        <path d="M10.5835442,18.2015806 C11.0693116,18.2015806 11.3955442,18.6922258 11.2151721,19.139 C10.8394512,20.0696452 9.92098605,20.7270645 8.84754419,20.7270645 C7.77410233,20.7270645 6.85563721,20.0696452 6.47991628,19.139 C6.29954419,18.6922258 6.62577674,18.2015806 7.11154419,18.2015806 L10.5835442,18.2015806 Z" id="Fill-45" fill="#473A4F"></path>
                        <path d="M13.2197767,15.6031935 C13.2197767,15.8386774 12.8342884,16.0296452 12.3589395,16.0296452 C11.8835907,16.0296452 11.4984279,15.8386774 11.4984279,15.6031935 C11.4984279,15.3677097 11.8835907,15.1767419 12.3589395,15.1767419 C12.8342884,15.1767419 13.2197767,15.3677097 13.2197767,15.6031935" id="Fill-47" fill="#FBC39C"></path>
                        <path d="M5.92528837,15.6031935 C5.92528837,15.8386774 5.5398,16.0296452 5.06445116,16.0296452 C4.58910233,16.0296452 4.20393953,15.8386774 4.20393953,15.6031935 C4.20393953,15.3677097 4.58910233,15.1767419 5.06445116,15.1767419 C5.5398,15.1767419 5.92528837,15.3677097 5.92528837,15.6031935" id="Fill-49" fill="#FBC39C"></path>
                        <path d="M9.9956093,19.0658387 L7.71393488,19.0658387 C7.32486512,19.0658387 7.00937674,18.7532581 7.00937674,18.3680968 L7.00937674,18.2016452 L10.6998419,18.2016452 L10.6998419,18.3680968 C10.6998419,18.7532581 10.3846791,19.0658387 9.9956093,19.0658387" id="Fill-51" fill="#FEFEFE"></path>
                        <path d="M8.84790233,19.7916452 C8.35171628,19.7916452 7.91413488,20.047129 7.65887907,20.431 C8.01441395,20.6174516 8.41748372,20.727129 8.84790233,20.727129 C9.27832093,20.727129 9.6813907,20.6174516 10.0369256,20.431 C9.78166977,20.047129 9.34408837,19.7916452 8.84790233,19.7916452" id="Fill-53" fill="#F3795D"></path>
                        <path d="M16.2301349,6.65954839 C16.060507,8.27825806 13.9673442,10.2747097 9.35353023,10.2747097 C4.74004186,10.2747097 2.47725116,7.79922581 2.47725116,5.0476129 C2.47725116,5.0476129 4.05599535,4.77922581 8.6698093,4.77922581 C13.2832977,4.77922581 16.5166465,3.92277419 16.2301349,6.65954839" id="Fill-55" fill="#BD7856"></path>
                        <g id="Group-59" transform="translate(2.279070, 0.088065)">
                            <mask id="mask-2" fill="white">
                                <use xlink:href="#path-1"></use>
                            </mask>
                            <g id="Clip-58"></g>
                            <path d="M13.8126279,4.67670968 C13.8126279,7.70541935 11.333,9.56929032 7.57872093,9.56929032 C2.63639535,9.56929032 0.198116279,7.30283871 0.198116279,4.27412903 C0.198116279,1.65929032 4.19039535,-1.89006452 8.36402326,1.86896774 C11.7624419,4.9296129 13.8126279,1.648 13.8126279,4.67670968" id="Fill-57" fill="#CD7C4F" mask="url(#mask-2)"></path>
                        </g>
                    </g>
                </g>
            </g>
        </g>
    </g>
</svg>