<?xml version="1.0" encoding="UTF-8"?>
<svg width="40px" height="40px" viewBox="0 0 40 40" version="1.1" xmlns="http://www.w3.org/2000/svg" xmlns:xlink="http://www.w3.org/1999/xlink">
    <!-- Generator: sketchtool 42 (36781) - http://www.bohemiancoding.com/sketch -->
    <title>0EC2CFC5-FBFA-4EEE-818F-EA241F536495</title>
    <desc>Created with sketchtool.</desc>
    <defs>
        <path d="M4.70164421,9.922688 C4.71507548,9.73887259 4.72190698,9.55326074 4.72190698,9.36608 C4.72190698,9.33952 4.72027907,9.3136 4.71995349,9.28736 L4.72190698,9.28736 L4.72190698,7.17024 C4.72190698,5.1664 3.93823256,3.34304 2.65674419,1.97792 C1.95329804,1.22852217 1.09978788,0.61724632 0.143027907,0.190489799 L0.143027907,9.922688 L4.70164421,9.922688 L4.70164421,9.922688 Z" id="path-1"></path>
    </defs>
    <g id="Page-1" stroke="none" stroke-width="1" fill="none" fill-rule="evenodd">
        <g id="Top-Stories" transform="translate(-669.000000, -1507.000000)">
            <g id="Group-16" transform="translate(669.000000, 1507.000000)">
                <circle id="Oval-2" fill="#F7F9FA" cx="20" cy="20" r="20"></circle>
                <g id="boy_5" transform="translate(6.000000, 0.000000)">
                    <g id="shadow-copy-4" transform="translate(0.000000, 36.800000)">
                        <ellipse id="Oval-Copy" fill="#F7F9FA" cx="14" cy="1.6" rx="14" ry="1.6"></ellipse>
                        <ellipse id="Oval" fill="#E9EAEC" cx="13.8372093" cy="1.6" rx="5.69767442" ry="0.64"></ellipse>
                    </g>
                    <g id="Person-0" transform="translate(4.558140, 0.000000)">
                        <g id="Group-47" transform="translate(0.000000, 0.153280)">
                            <path d="M13.5324651,23.702752 L5.71851163,23.702752 C3.20111628,23.702752 1.16037209,25.708512 1.16037209,28.182752 L1.16037209,32.662752 C1.16037209,33.369632 1.74348837,33.942752 2.46269767,33.942752 L16.7882791,33.942752 C17.5074884,33.942752 18.0906047,33.369632 18.0906047,32.662752 L18.0906047,28.182752 C18.0906047,25.708512 16.0498605,23.702752 13.5324651,23.702752" id="Fill-1" fill="#4D4C4E"></path>
                            <path d="M9.62548837,26.262752 L9.62548837,26.262752 C8.54651163,26.262752 7.672,25.403232 7.672,24.342752 L7.672,19.862752 L11.5789767,19.862752 L11.5789767,24.342752 C11.5789767,25.403232 10.7044651,26.262752 9.62548837,26.262752" id="Fill-3" fill="#EAC6A0"></path>
                            <path d="M11.5789767,22.742752 C11.5789767,22.742752 10.1206977,23.062752 9.62548837,23.062752 C9.13027907,23.062752 7.672,22.742752 7.672,22.742752 L7.672,22.102752 C7.672,22.102752 9.13027907,22.422752 9.62548837,22.422752 C10.1206977,22.422752 11.5789767,22.102752 11.5789767,22.102752 L11.5789767,22.742752 Z" id="Fill-5" fill="#292929" opacity="0.200000003"></path>
                            <path d="M18.416186,7.702752 L0.834790698,7.702752 L0.834790698,11.542752 C0.834790698,13.310112 2.2924186,14.742752 4.09060465,14.742752 L15.1603721,14.742752 C16.9585581,14.742752 18.416186,13.310112 18.416186,11.542752 L18.416186,7.702752 Z" id="Fill-7" fill="#5F5C61"></path>
                            <path d="M18.416186,13.798816 C18.416186,14.682336 17.6872093,15.398816 16.7882791,15.398816 C15.8893488,15.398816 15.1603721,14.682336 15.1603721,13.798816 C15.1603721,12.915296 15.8893488,12.198816 16.7882791,12.198816 C17.6872093,12.198816 18.416186,12.915296 18.416186,13.798816" id="Fill-9" fill="#EAC6A0"></path>
                            <path d="M4.09060465,13.798816 C4.09060465,14.682336 3.36162791,15.398816 2.46269767,15.398816 C1.56376744,15.398816 0.834790698,14.682336 0.834790698,13.798816 C0.834790698,12.915296 1.56376744,12.198816 2.46269767,12.198816 C3.36162791,12.198816 4.09060465,12.915296 4.09060465,13.798816" id="Fill-11" fill="#EAC6A0"></path>
                            <path d="M18.416186,7.702752 C18.416186,11.237472 15.5009302,14.102752 11.9045581,14.102752 C8.30818605,14.102752 5.39293023,11.237472 5.39293023,7.702752 C5.39293023,4.168032 8.30818605,1.302752 11.9045581,1.302752 C16.145907,1.302752 18.416186,4.168032 18.416186,7.702752" id="Fill-13" fill="#5F5C61"></path>
                            <path d="M9.62552093,22.422752 L9.62552093,22.422752 C5.66970698,22.422752 2.46273023,19.270752 2.46273023,15.382752 L2.46273023,9.302752 C2.46273023,5.414752 5.66970698,2.262752 9.62552093,2.262752 L9.62552093,2.262752 C13.5813349,2.262752 16.7883116,5.414752 16.7883116,9.302752 L16.7883116,15.382752 C16.7883116,19.270752 13.5813349,22.422752 9.62552093,22.422752" id="Fill-15" fill="#F8D4AA"></path>
                            <polygon id="Fill-17" fill="#F1F2F2" points="10.927814 23.702752 9.62516279 26.657952 8.32316279 23.702752 6.36967442 23.702752 9.62548837 32.342752 12.8813023 23.702752"></polygon>
                            <path d="M6.26262326,9.833728 C4.2791814,9.824448 2.39113488,9.033088 1.00415814,7.672128 L0.834855814,7.702848 L0.834855814,8.446528 C2.31397209,9.750848 4.24108837,10.502528 6.25936744,10.512128 C6.93234419,10.515008 7.59294884,10.437248 8.23011163,10.285248 C10.4297395,9.760768 12.3441581,8.353088 13.469693,6.352448 L12.8657395,6.024448 C11.5363907,8.387008 9.00694884,9.847488 6.26262326,9.833728" id="Fill-19" fill="#292929" opacity="0.200000003"></path>
                            <path d="M10.4092279,17.184736 C9.8983907,17.341856 9.35271628,17.342176 8.84155349,17.185696" id="Stroke-21" stroke="#EAC6A0" stroke-width="0.64" stroke-linecap="round"></path>
                            <path d="M4.7421907,12.667744 C4.66372558,12.667744 4.58493488,12.639904 4.52242326,12.583904 C4.38991163,12.464544 4.38079535,12.261984 4.50191163,12.131744 C4.96033023,11.638944 5.76646977,11.473504 6.46614419,11.730464 C6.63446977,11.792544 6.71977209,11.976864 6.65693488,12.142304 C6.59377209,12.307744 6.40786512,12.391904 6.23791163,12.329824 C5.73033023,12.143264 5.22177209,12.306144 4.98246977,12.563744 C4.91833023,12.632864 4.83042326,12.667744 4.7421907,12.667744" id="Fill-23" fill="#5F5C61"></path>
                            <path d="M14.509014,12.667744 C14.4207814,12.667744 14.3328744,12.632864 14.2687349,12.563744 C14.0294326,12.306144 13.5205488,12.143264 13.013293,12.329824 C12.8449674,12.391584 12.6574326,12.307744 12.5942698,12.142304 C12.5314326,11.976864 12.6167349,11.792544 12.7850605,11.730464 C13.4827814,11.473504 14.2905488,11.638944 14.749293,12.131744 C14.8704093,12.261984 14.861293,12.464544 14.7287814,12.583904 C14.6662698,12.639904 14.5874791,12.667744 14.509014,12.667744" id="Fill-25" fill="#5F5C61"></path>
                            <path d="M13.7235163,13.302752 C13.7235163,13.567712 13.5047256,13.782752 13.2351442,13.782752 C12.9655628,13.782752 12.7467721,13.567712 12.7467721,13.302752 C12.7467721,13.037792 12.9655628,12.822752 13.2351442,12.822752 C13.5047256,12.822752 13.7235163,13.037792 13.7235163,13.302752" id="Fill-27" fill="#2D2D2D"></path>
                            <path d="M6.50423721,13.302752 C6.50423721,13.567712 6.28544651,13.782752 6.01586512,13.782752 C5.74628372,13.782752 5.52749302,13.567712 5.52749302,13.302752 C5.52749302,13.037792 5.74628372,12.822752 6.01586512,12.822752 C6.28544651,12.822752 6.50423721,13.037792 6.50423721,13.302752" id="Fill-29" fill="#2D2D2D"></path>
                            <polygon id="Fill-31" fill="#2878A1" points="10.0393674 24.997184 9.62587907 24.997184 9.62555349 24.997184 9.62522791 24.997184 9.21173953 24.997184 8.1588093 25.580864 8.94248372 27.345664 10.3086233 27.345664 11.0922977 25.580864"></polygon>
                            <polygon id="Fill-33" fill="#2878A1" points="9.62548837 32.342752 8.64874419 29.782752 8.9424186 27.345632 10.3085581 27.345632 10.6022326 29.782752"></polygon>
                            <polygon id="Fill-35" fill="#292929" points="10.3467163 27.626752 10.3079721 27.345792 8.94378605 27.345792 8.90406512 27.626752"></polygon>
                            <polygon id="Fill-37" fill="#FEFEFE" points="7.672 22.742752 6.36967442 23.702752 7.77781395 26.201312 9.618 24.997152"></polygon>
                            <polygon id="Fill-39" fill="#FEFEFE" points="11.5714884 22.742752 12.873814 23.702752 11.4656744 26.201312 9.62548837 24.997152"></polygon>
                            <path d="M10.9820884,19.534496 C10.7245535,19.765536 10.0737163,19.854496 9.69343721,19.854496" id="Stroke-41" stroke="#F4876D" stroke-width="0.64" stroke-linecap="round" stroke-linejoin="round"></path>
                            <path d="M8.40446047,19.534496 C8.66199535,19.765536 9.31283256,19.854496 9.69343721,19.854496" id="Stroke-43" stroke="#F4876D" stroke-width="0.64" stroke-linecap="round" stroke-linejoin="round"></path>
                            <path d="M13.4697581,1.69792 C10.5206419,-1.20384 1.54143256,-0.56832 0.000130232558,7.58272 C1.79668837,9.41792 4.4352,10.40416 7.1932,9.9984 C10.2943628,9.54176 12.733293,7.45024 13.7425953,4.74752" id="Fill-45" fill="#5F5C61"></path>
                            <path d="M8.47439535,37.5870422 L4.74193023,33.92672 L14.5093721,33.92672 L10.7765814,37.5870422 C10.1407209,38.2106124 9.11025581,38.2106124 8.47439535,37.5870422" id="Fill-51" fill="#4D4C4E"></path>
                        </g>
                        <g id="Group-50" transform="translate(12.697674, 1.753280)">
                            <mask id="mask-2" fill="white">
                                <use xlink:href="#path-1"></use>
                            </mask>
                            <g id="Clip-49"></g>
                            <path d="M14.301586,2.964608 C14.301586,6.807488 11.1320512,9.922688 7.22214419,9.922688 C3.31256279,9.922688 0.143027907,6.807488 0.143027907,2.964608 C0.143027907,-0.878272 3.31256279,-3.993472 7.22214419,-3.993472 C11.1320512,-3.993472 14.301586,-0.878272 14.301586,2.964608" id="Fill-48" fill="#5F5C61" mask="url(#mask-2)"></path>
                        </g>
                    </g>
                </g>
            </g>
        </g>
    </g>
</svg>