<?xml version="1.0" encoding="UTF-8"?>
<svg width="40px" height="40px" viewBox="0 0 40 40" version="1.1" xmlns="http://www.w3.org/2000/svg" xmlns:xlink="http://www.w3.org/1999/xlink">
    <!-- Generator: sketchtool 42 (36781) - http://www.bohemiancoding.com/sketch -->
    <title>38E2A94C-2250-45DA-A733-EC35539201E4</title>
    <desc>Created with sketchtool.</desc>
    <defs>
        <polygon id="path-1" points="0.286251163 5.2892562 10.053693 5.2892562 10.053693 9.91735537e-05 0.286251163 9.91735537e-05 0.286251163 5.2892562"></polygon>
        <path d="M4.08443334,10.6133884 C3.7650065,10.4606675 3.45292584,10.2814028 3.15097674,10.0750413 C-0.0537209302,7.88495868 -0.903162791,3.47173554 1.25381395,0.217520661 L7.59386047,6.18975207 C9.3747907,7.40694215 11.508,7.68 13.4224186,7.12528926 C13.2648372,7.47603306 13.0782791,7.8185124 12.8594884,8.14876033 C12.1257598,9.25573117 11.1386749,10.0859485 10.0293472,10.6133884 L4.08443305,10.6133884 L4.08443334,10.6133884 Z" id="path-3"></path>
        <path d="M6.48580745,12.4009256 C5.15649421,12.3010596 4.05831901,11.8951527 3.48437209,11.3123967 C0.397860465,8.17818182 -1.09655814,3.85123967 1.3404186,0.174545455 L8.50418605,6.92231405 C10.5166047,8.29719008 12.9265581,8.60595041 15.0897209,7.97884298 C13.276876,10.9755971 10.3203138,12.218786 7.79110694,12.4009256 L6.48580745,12.4009256 L6.48580745,12.4009256 Z" id="path-5"></path>
        <path d="M0.843376836,12.4210579 C0.48316225,11.4257933 0.286511628,10.3502802 0.286511628,9.22809917 C0.286511628,4.49450714 3.78602204,0.590831653 8.3012186,0.0387569416 L8.3012186,12.4210579 L0.843376836,12.4210579 L0.843376836,12.4210579 Z" id="path-7"></path>
        <path d="M12.9947425,13.7097851 C13.6127009,12.4613246 13.9606047,11.0512824 13.9606047,9.55867769 C13.9606047,4.44661157 9.87911628,0.302479339 4.84432558,0.302479339 C3.09587425,0.302479339 1.46236597,0.802322816 0.0748511628,1.6689618 L0.0748511628,13.7097851 L12.9947425,13.7097851 L12.9947425,13.7097851 Z" id="path-9"></path>
    </defs>
    <g id="Page-1" stroke="none" stroke-width="1" fill="none" fill-rule="evenodd">
        <g id="Top-Stories" transform="translate(-669.000000, -1101.000000)">
            <g id="Group-14" transform="translate(669.000000, 1101.000000)">
                <circle id="Oval-2" fill="#F7F9FA" cx="20" cy="20" r="20"></circle>
                <g id="girl_3" transform="translate(6.000000, 0.000000)">
                    <g id="shadow" transform="translate(0.000000, 36.694215)">
                        <ellipse id="Oval-Copy" fill="#F7F9FA" cx="14" cy="1.65289256" rx="14" ry="1.65289256"></ellipse>
                        <ellipse id="Oval" fill="#E9EAEC" cx="13.8372093" cy="1.65289256" rx="5.69767442" ry="0.661157025"></ellipse>
                    </g>
                    <g id="Person-6" transform="translate(4.558140, 0.000000)">
                        <g id="Group-48" transform="translate(0.000000, 1.983471)">
                            <path d="M18.5188093,7.65299174 L7.0528093,5.7134876 L0.286251163,7.65299174 L0.286251163,14.7029091 C0.286251163,21.4477025 5.67104186,26.9151405 12.3138791,26.9151405 L17.5143907,27.1075372 C15.1653209,18.9786116 18.2970884,10.9346446 18.2970884,10.9346446 L18.5188093,7.65299174 Z" id="Fill-1" fill="#F2BC38"></path>
                            <path d="M10.053693,21.4876033 L8.75136744,21.4876033 C4.43578605,21.4876033 0.937413953,25.0396694 0.937413953,29.4214876 L0.937413953,30.0826446 C0.937413953,31.1781818 1.81192558,32.0661157 2.89090233,32.0661157 L15.9141581,32.0661157 C16.9931349,32.0661157 17.8676465,31.1781818 17.8676465,30.0826446 L17.8676465,29.4214876 C17.8676465,25.0396694 14.3692744,21.4876033 10.053693,21.4876033" id="Fill-3" fill="#F4CE9F"></path>
                            <path d="M9.40253023,24.1322314 L9.40253023,24.1322314 C8.32355349,24.1322314 7.44904186,23.2442975 7.44904186,22.1487603 L7.44904186,17.5206612 L11.3560186,17.5206612 L11.3560186,22.1487603 C11.3560186,23.2442975 10.481507,24.1322314 9.40253023,24.1322314" id="Fill-5" fill="#F4CE9F"></path>
                            <path d="M12.2553395,21.809124 C12.3041767,22.0249917 12.3328279,22.2484628 12.3328279,22.4792066 C12.3328279,24.1225124 11.0207349,25.4544132 9.40259535,25.4544132 C7.78413023,25.4544132 6.47236279,24.1225124 6.47236279,22.4792066 C6.47236279,22.2484628 6.50068837,22.0249917 6.54985116,21.809124 C3.30673488,22.7747438 0.93747907,25.8163967 0.93747907,29.4213554 L0.93747907,30.0825124 C0.93747907,31.1780496 1.8119907,32.0659835 2.89096744,32.0659835 L15.9142233,32.0659835 C16.9932,32.0659835 17.8677116,31.1780496 17.8677116,30.0825124 L17.8677116,29.4213554 C17.8677116,25.8163967 15.4984558,22.7747438 12.2553395,21.809124" id="Fill-7" fill="#F06168"></path>
                            <path d="M4.03043721,29.5869091 C3.76053023,29.5869091 3.54206512,29.8090579 3.54206512,30.0827769 L3.54206512,32.0662479 L4.5188093,32.0662479 L4.5188093,30.0827769 C4.5188093,29.8090579 4.30034419,29.5869091 4.03043721,29.5869091" id="Fill-9" fill="#292929" opacity="0.200000003"></path>
                            <path d="M14.7746233,29.5869091 C14.5047163,29.5869091 14.2862512,29.8090579 14.2862512,30.0827769 L14.2862512,32.0662479 L15.2629953,32.0662479 L15.2629953,30.0827769 C15.2629953,29.8090579 15.0445302,29.5869091 14.7746233,29.5869091" id="Fill-11" fill="#292929" opacity="0.200000003"></path>
                            <g id="Group-15" transform="translate(4.232558, 30.413223)">
                                <mask id="mask-2" fill="white">
                                    <use xlink:href="#path-1"></use>
                                </mask>
                                <g id="Clip-14"></g>
                                <path d="M10.053693,1.54919008 C10.053693,3.61464463 7.86708837,5.28935537 5.16997209,5.28935537 C2.47285581,5.28935537 0.286251163,3.61464463 0.286251163,1.54919008 C0.286251163,-0.516264463 10.053693,-0.516264463 10.053693,1.54919008" id="Fill-13" fill="#F06168" mask="url(#mask-2)"></path>
                            </g>
                            <path d="M11.3560186,21.1570248 C11.3560186,21.1570248 9.89773953,21.4876033 9.40253023,21.4876033 C8.90732093,21.4876033 7.44904186,21.1570248 7.44904186,21.1570248 L7.44904186,20.4958678 C7.44904186,20.4958678 8.90732093,20.8264463 9.40253023,20.8264463 C9.89773953,20.8264463 11.3560186,20.4958678 11.3560186,20.4958678 L11.3560186,21.1570248 Z" id="Fill-16" fill="#292929" opacity="0.200000003"></path>
                            <path d="M11.3560186,20.4958678 C11.3560186,20.4958678 9.89773953,20.8264463 9.40253023,20.8264463 C8.90732093,20.8264463 7.44904186,20.4958678 7.44904186,20.4958678 L7.44904186,19.8347107 C7.44904186,19.8347107 8.90732093,20.1652893 9.40253023,20.1652893 C9.89773953,20.1652893 11.3560186,19.8347107 11.3560186,19.8347107 L11.3560186,20.4958678 Z" id="Fill-18" fill="#292929"></path>
                            <path d="M9.40253023,20.8264463 L9.40253023,20.8264463 C5.44671628,20.8264463 2.23973953,17.5702479 2.23973953,13.553719 L2.23973953,7.27272727 C2.23973953,3.25619835 5.44671628,0 9.40253023,0 L9.40253023,0 C13.3583442,0 16.5653209,3.25619835 16.5653209,7.27272727 L16.5653209,13.553719 C16.5653209,17.5702479 13.3583442,20.8264463 9.40253023,20.8264463" id="Fill-20" fill="#F4CE9F"></path>
                            <path d="M17.7842,11.4480992 C17.7301535,10.7317355 17.2124791,10.1704132 16.5541535,10.0269421 L16.5541535,13.1109091 C17.3059209,12.9476033 17.8444326,12.2480992 17.7842,11.4480992" id="Fill-22" fill="#FECD85"></path>
                            <path d="M2.53074419,9.99127273 C2.506,9.99193388 2.48223256,9.98763636 2.45748837,9.98961983 C1.59827907,10.0560661 0.955255814,10.8173884 1.02102326,11.6897851 C1.07474419,12.4061488 1.5924186,12.9671405 2.25074419,13.1106116 L2.25074419,11.6471405 C2.25074419,11.1552397 2.34906977,10.5687934 2.53074419,9.99127273" id="Fill-24" fill="#FECD85"></path>
                            <path d="M11.4128,17.8416198 C11.1135907,18.6009587 10.3999163,19.0915372 9.59410233,19.0915372 C8.78796279,19.0915372 8.07428837,18.6009587 7.77540465,17.8416198 C7.71256744,17.6816198 7.76270698,17.507405 7.9040093,17.398314 C8.29893953,17.0928595 10.888614,17.0931901 11.2838698,17.3979835 C11.4251721,17.5070744 11.4756372,17.6812893 11.4128,17.8416198" id="Fill-26" fill="#F4CE9F"></path>
                            <path d="M9.65449767,15.6478678 C9.1045907,15.6478678 8.44268372,15.3053884 8.52407907,15.0495207 C8.69370698,14.5166281 8.94896279,15.152 9.5945907,15.152 C10.2242651,15.152 10.4941721,14.5166281 10.6638,15.0495207 C10.7455209,15.3053884 10.2044047,15.6478678 9.65449767,15.6478678" id="Fill-28" fill="#F4CE9F"></path>
                            <path d="M4.47101395,14.6562645 C4.36357209,15.1322975 4.62306047,15.5990744 5.05087442,15.6985785 C5.47901395,15.7980826 5.91301395,15.4929587 6.02045581,15.0169256 C6.12789767,14.5408926 5.86808372,14.0744463 5.44026977,13.9746116 C5.01245581,13.8751074 4.57845581,14.1802314 4.47101395,14.6562645" id="Fill-30" fill="#F1B08E"></path>
                            <path d="M14.3340465,14.6562645 C14.4414884,15.1322975 14.182,15.5990744 13.754186,15.6985785 C13.3260465,15.7980826 12.8920465,15.4929587 12.7846047,15.0169256 C12.6771628,14.5408926 12.9369767,14.0744463 13.3647907,13.9746116 C13.7926047,13.8751074 14.2266047,14.1802314 14.3340465,14.6562645" id="Fill-32" fill="#F1B08E"></path>
                            <path d="M9.59468837,15.152 C8.94906047,15.152 8.69380465,14.5166281 8.52417674,15.0495207 C8.44245581,15.3053884 9.10468837,15.6478678 9.65459535,15.6478678 C10.2045023,15.6478678 10.745293,15.3053884 10.6638977,15.0495207 C10.4942698,14.5166281 10.2243628,15.152 9.59468837,15.152" id="Fill-34" fill="#F1B08E"></path>
                            <path d="M8.53407442,17.8816529 C8.77565581,18.2224793 9.16537674,18.4304132 9.59416744,18.4304132 C10.0226326,18.4304132 10.4123535,18.2224793 10.6539349,17.8816529 C10.1317023,17.8138843 9.05663256,17.8138843 8.53407442,17.8816529" id="Fill-36" fill="#FEFEFE"></path>
                            <path d="M9.59413488,18.4304463 C9.16566977,18.4304463 8.77562326,18.2225124 8.53404186,17.881686 C9.05692558,17.8139174 10.1316698,17.8139174 10.6539023,17.881686 C10.4123209,18.2225124 10.0226,18.4304463 9.59413488,18.4304463 M7.90404186,17.3983802 C7.76273953,17.5074711 7.7126,17.6813554 7.77543721,17.841686 C8.07432093,18.6010248 8.78799535,19.0916033 9.59413488,19.0916033 C10.3999488,19.0916033 11.1136233,18.6010248 11.4128326,17.841686 C11.4756698,17.6810248 11.4252047,17.5071405 11.2839023,17.3980496 C10.8886465,17.0932562 8.29864651,17.0929256 7.90404186,17.3983802" id="Fill-38" fill="#F1644B"></path>
                            <path d="M6.79787907,11.9008264 C6.79787907,11.5355372 6.50648372,11.2396694 6.14671628,11.2396694 C5.78694884,11.2396694 5.49555349,11.5355372 5.49555349,11.9008264 C5.49555349,12.2661157 5.78694884,12.5619835 6.14671628,12.5619835 C6.50648372,12.5619835 6.79787907,12.2661157 6.79787907,11.9008264" id="Fill-40" fill="#2D2D2D"></path>
                            <path d="M13.309507,11.9008264 C13.309507,11.5355372 13.0181116,11.2396694 12.6583442,11.2396694 C12.2985767,11.2396694 12.0071814,11.5355372 12.0071814,11.9008264 C12.0071814,12.2661157 12.2985767,12.5619835 12.6583442,12.5619835 C13.0181116,12.5619835 13.309507,12.2661157 13.309507,11.9008264" id="Fill-42" fill="#2D2D2D"></path>
                            <path d="M4.51021395,11.0980826 C4.44835349,11.0980826 4.38584186,11.074281 4.33863256,11.0263471 C4.24258605,10.9298182 4.24193488,10.773124 4.33667907,10.6759339 C4.8524,10.1466777 6.0091907,9.79097521 7.0504,10.1099835 C7.17933023,10.1493223 7.25258605,10.2878347 7.21351628,10.4187438 C7.17477209,10.5499835 7.03933023,10.6253554 6.90909767,10.5843636 C6.08146977,10.3314711 5.0904,10.6075041 4.68374884,11.0243636 C4.63621395,11.0736198 4.57305116,11.0980826 4.51021395,11.0980826" id="Fill-44" fill="#BE7A5E"></path>
                            <path d="M14.2948465,11.0980826 C14.2320093,11.0980826 14.1688465,11.0736198 14.1213116,11.0243636 C13.7146605,10.6071736 12.7232651,10.3314711 11.8959628,10.5843636 C11.7654047,10.6250248 11.6302884,10.5496529 11.5915442,10.4187438 C11.5524744,10.2878347 11.6257302,10.1493223 11.7546605,10.1099835 C12.7961953,9.79064463 13.952986,10.1466777 14.4683814,10.6759339 C14.5631256,10.773124 14.5624744,10.9298182 14.4664279,11.0263471 C14.4192186,11.074281 14.356707,11.0980826 14.2948465,11.0980826" id="Fill-46" fill="#BE7A5E"></path>
                        </g>
                        <g id="Group-51" transform="translate(7.162791, 0.661157)">
                            <mask id="mask-4" fill="white">
                                <use xlink:href="#path-3"></use>
                            </mask>
                            <g id="Clip-50"></g>
                            <path d="M16.329307,1.83553719 C16.329307,6.68347107 12.4587953,10.6133884 7.68414419,10.6133884 C2.9098186,10.6133884 -0.960693023,6.68347107 -0.960693023,1.83553719 C-0.960693023,-3.01239669 2.9098186,-6.94231405 7.68414419,-6.94231405 C12.4587953,-6.94231405 16.329307,-3.01239669 16.329307,1.83553719" id="Fill-49" fill="#F2BC38" mask="url(#mask-4)"></path>
                        </g>
                        <path d="M14.5350605,13.0362314 C11.1320837,13.0362314 8.20510698,10.9278017 6.95487442,7.92978512 L5.69552558,8.29077686 C7.10724651,11.8435041 10.5362698,14.3585455 14.5350605,14.3585455 C15.835107,14.3585455 16.8961767,14.0997025 18.0262698,13.6187107 C18.179293,13.1086281 18.2831535,12.8276364 18.2831535,12.8276364 L18.5188744,11.9830083 C17.3373395,12.6507769 15.9806419,13.0362314 14.5350605,13.0362314" id="Fill-52" fill="#373435" opacity="0.200000003"></path>
                        <g id="Group-56" transform="translate(7.162791, 1.322314)">
                            <mask id="mask-6" fill="white">
                                <use xlink:href="#path-5"></use>
                            </mask>
                            <g id="Clip-55"></g>
                            <path d="M16.6620837,2.71993388 C16.6620837,8.06671074 12.393386,12.4009256 7.12743256,12.4009256 C1.86147907,12.4009256 -2.4072186,8.06671074 -2.4072186,2.71993388 C-2.4072186,-2.62684298 1.86147907,-6.96105785 7.12743256,-6.96105785 C12.393386,-6.96105785 16.6620837,-2.62684298 16.6620837,2.71993388" id="Fill-54" fill="#F2BC38" mask="url(#mask-6)"></path>
                        </g>
                        <g id="Group-63">
                            <g id="Group-59" transform="translate(0.000000, 0.330579)">
                                <mask id="mask-8" fill="white">
                                    <use xlink:href="#path-7"></use>
                                </mask>
                                <g id="Clip-58"></g>
                                <path d="M8.3012186,5.56221488 C8.3012186,9.35031405 5.27689302,12.4210579 1.54605581,12.4210579 C-2.1847814,12.4210579 -5.20943256,9.35031405 -5.20943256,5.56221488 C-5.20943256,1.7741157 -2.1847814,-1.2966281 1.54605581,-1.2966281 C5.27689302,-1.2966281 8.3012186,1.7741157 8.3012186,5.56221488" id="Fill-57" fill="#F2BC38" mask="url(#mask-8)"></path>
                            </g>
                            <g id="Group-62" transform="translate(4.558140, 0.000000)">
                                <mask id="mask-10" fill="white">
                                    <use xlink:href="#path-9"></use>
                                </mask>
                                <g id="Clip-61"></g>
                                <path d="M19.4378279,3.87970248 C19.4378279,9.30879339 15.1033628,13.7097851 9.75633953,13.7097851 C4.40931628,13.7097851 0.0748511628,9.30879339 0.0748511628,3.87970248 C0.0748511628,-1.54938843 4.40931628,-5.95038017 9.75633953,-5.95038017 C15.1033628,-5.95038017 19.4378279,-1.54938843 19.4378279,3.87970248" id="Fill-60" fill="#F2BC38" mask="url(#mask-10)"></path>
                            </g>
                        </g>
                    </g>
                </g>
            </g>
        </g>
    </g>
</svg>